<?xml version="1.0" encoding="iso-8859-1"?>
<!-- Generator: Adobe Illustrator 19.0.0, SVG Export Plug-In . SVG Version: 6.00 Build 0)  -->
<svg version="1.1" id="Capa_1" xmlns="http://www.w3.org/2000/svg" xmlns:xlink="http://www.w3.org/1999/xlink" x="0px" y="0px"
	 viewBox="0 0 512 512" style="enable-background:new 0 0 512 512;" xml:space="preserve">
<path style="fill:#EDEBED;" d="M345.552,504.5H79.644c-4.427,0-8.016-3.589-8.016-8.016V15.516c0-4.427,3.589-8.016,8.016-8.016
	h352.71c4.427,0,8.016,3.589,8.016,8.016v394.169c0,4.252-1.689,8.33-4.696,11.337l-78.785,78.782
	C353.882,502.811,349.804,504.5,345.552,504.5z"/>
<circle style="fill:#C4DEFF;" cx="255.999" cy="183.85" r="104.21"/>
<rect x="235.959" y="191.87" style="fill:#F7D291;" width="40.08" height="56.11"/>
<path style="fill:#F0C382;" d="M276.039,191.871h-40.08l-0.001,22.658c4.775,2.287,9.909,3.903,15.37,4.423
	c1.572,0.15,3.13,0.223,4.672,0.223c7.157,0,13.929-1.615,20.039-4.43V191.871z"/>
<path style="fill:#4B3F4E;" d="M264.015,183.855h-16.032c-17.709,0-32.064-14.356-32.064-32.064l0,0
	c0-17.709,14.356-32.064,32.064-32.064h16.032c17.709,0,32.064,14.356,32.064,32.064l0,0
	C296.08,169.499,281.724,183.855,264.015,183.855z"/>
<path style="fill:#DBD9DC;" d="M356.889,499.805l78.785-78.783c1.367-1.367,2.42-2.974,3.208-4.699h-78.673
	c-4.427,0-8.016,3.589-8.016,8.016v78.671C353.917,502.223,355.523,501.17,356.889,499.805z"/>
<path style="fill:#FFE1A0;" d="M258.313,127.829c-6.76-0.51-12.997,1.247-18.346,4.36v3.569c0,0-1.36,14.814-12.66,22.214
	c-2.162,1.416-3.373,3.912-3.373,6.497v1.976c0,16.747,12.244,31.702,28.915,33.292c19.124,1.823,35.214-13.167,35.214-31.914V161.8
	C288.064,144.624,275.439,129.121,258.313,127.829z"/>
<path style="fill:#F7D291;" d="M252.85,199.737c19.124,1.823,35.214-13.167,35.214-31.914c0,13.71-11.473,24.74-25.342,24.014
	c-13.004-0.681-22.755-12.353-22.755-25.375v-30.704c0,0-1.36,14.814-12.66,22.214c-2.162,1.416-3.373,3.912-3.373,6.497v1.976
	C223.934,183.192,236.178,198.147,252.85,199.737z"/>
<path style="fill:#5D5360;" d="M264.015,119.726h-16.032c-8.105,0-15.421,3.107-21.066,8.066
	c10.091,19.035,30.085,32.015,53.13,32.015c5.345,0,10.5-0.765,15.433-2.074c0.363-1.93,0.599-3.907,0.599-5.942
	C296.08,134.081,281.724,119.726,264.015,119.726z"/>
<path style="fill:#C9C6CA;" d="M318.969,236.273l-31.256-13.892l-31.368,26.14l-31.368-26.14l-31.256,13.892
	c-5.789,2.574-9.521,8.315-9.521,14.651v8.335c18.698,17.808,43.94,28.806,71.799,28.806c28.195,0,53.732-11.245,72.492-29.436
	v-7.704C328.491,244.588,324.759,238.846,318.969,236.273z"/>
<path d="M335.702,116.344c-3.343,2.446-4.069,7.139-1.623,10.482c13.488,18.43,20.017,41.177,18.383,64.05
	c-1.309,18.321-7.846,35.784-18.666,50.415c-2.28-5.427-6.548-9.929-12.127-12.408l-37.824-16.811
	c-0.186-0.083-0.306-0.268-0.306-0.472v-15.411c5.295-5.142,9.156-11.745,10.93-19.155c5.879-7.088,9.11-16,9.11-25.244
	c0-21.816-17.749-39.564-39.564-39.564h-16.032c-21.816,0-39.564,17.749-39.564,39.564c0,9.244,3.231,18.156,9.11,25.244
	c1.774,7.41,5.635,14.013,10.93,19.155V211.6c0,0.204-0.12,0.389-0.306,0.472l-37.824,16.811c-5.55,2.467-9.803,6.936-12.092,12.326
	c-4.606-6.222-8.436-12.957-11.433-20.142c-1.595-3.823-5.989-5.629-9.809-4.034c-3.823,1.595-5.629,5.986-4.035,9.809
	c5.612,13.453,13.726,25.543,24.118,35.935c21.099,21.099,49.152,32.719,78.991,32.719s57.892-11.62,78.991-32.719
	c18.963-18.962,30.457-44.118,32.365-70.832c1.887-26.412-5.657-52.685-21.24-73.978
	C343.738,114.623,339.043,113.898,335.702,116.344z M247.983,127.226h16.032c13.545,0,24.564,11.02,24.564,24.564
	c0,0.153-0.018,0.304-0.021,0.457c-22.089,3.365-36.875-8.75-37.492-9.307c-3.026-2.796-7.748-2.626-10.566,0.389
	c-2.829,3.026-2.668,7.772,0.357,10.601c0.659,0.616,14.988,13.719,39.706,13.792v0.102c0,13.545-11.02,24.565-24.564,24.565
	s-24.564-11.02-24.564-24.565v-8.016c0-4.142-3.358-7.5-7.5-7.5c-0.166,0-0.328,0.014-0.492,0.025
	c-0.004-0.181-0.025-0.359-0.025-0.541C223.418,138.245,234.438,127.226,247.983,127.226z M255.999,207.387
	c4.383,0,8.597-0.727,12.541-2.049v6.262c0,4.563,2.009,8.813,5.347,11.714l-17.888,14.907l-17.888-14.906
	c3.338-2.901,5.347-7.151,5.347-11.714v-6.262C247.402,206.66,251.616,207.387,255.999,207.387z M191.354,255.654v-5.267
	c0-3.369,1.989-6.429,5.066-7.797l26.994-11.997l27.784,23.153c1.391,1.159,3.096,1.738,4.801,1.738s3.411-0.579,4.801-1.738
	l27.784-23.153l26.994,11.997c3.078,1.368,5.066,4.428,5.066,7.797v5.389c-17.768,15.977-40.499,24.72-64.576,24.72
	C231.929,280.496,209.142,271.71,191.354,255.654z"/>
<path d="M159.648,191.293c-2.184-28.229,8.035-55.891,28.036-75.892c16.411-16.411,38.179-26.358,61.295-28.01
	c22.871-1.633,45.62,4.895,64.05,18.383c3.341,2.446,8.035,1.72,10.481-1.623c2.446-3.343,1.72-8.035-1.623-10.482
	c-21.293-15.584-47.566-23.127-73.978-21.24c-26.714,1.908-51.87,13.402-70.833,32.365c-23.103,23.103-34.906,55.052-32.384,87.655
	c0.304,3.933,3.59,6.922,7.469,6.922c0.194,0,0.39-0.008,0.587-0.023C156.878,199.03,159.968,195.423,159.648,191.293z"/>
<path d="M432.354,0H79.644c-8.556,0-15.516,6.96-15.516,15.516v480.968c0,8.556,6.96,15.516,15.516,15.516h265.908
	c6.286,0,12.195-2.448,16.64-6.892l78.785-78.782c4.445-4.444,6.894-10.354,6.894-16.64V15.516C447.87,6.96,440.91,0,432.354,0z
	 M432.87,409.685c0,2.279-0.888,4.422-2.5,6.033l-70.678,70.676v-62.056c0-0.285,0.231-0.516,0.516-0.516h40.081
	c4.142,0,7.5-3.358,7.5-7.5s-3.358-7.5-7.5-7.5h-40.081c-8.556,0-15.516,6.96-15.516,15.516V497H79.644
	c-0.285,0-0.516-0.231-0.516-0.516V15.516c0-0.285,0.231-0.516,0.516-0.516h352.71c0.285,0,0.516,0.231,0.516,0.516L432.87,409.685
	L432.87,409.685z"/>
<path d="M344.176,328.661H167.822c-4.142,0-7.5,3.358-7.5,7.5s3.358,7.5,7.5,7.5h176.354c4.142,0,7.5-3.358,7.5-7.5
	S348.318,328.661,344.176,328.661z"/>
<path d="M312.112,368.742H199.886c-4.142,0-7.5,3.358-7.5,7.5s3.358,7.5,7.5,7.5h112.226c4.142,0,7.5-3.358,7.5-7.5
	S316.254,368.742,312.112,368.742z"/>
<g>
</g>
<g>
</g>
<g>
</g>
<g>
</g>
<g>
</g>
<g>
</g>
<g>
</g>
<g>
</g>
<g>
</g>
<g>
</g>
<g>
</g>
<g>
</g>
<g>
</g>
<g>
</g>
<g>
</g>
</svg>
