<svg height="477.60001pt" viewBox="0 0 477.60001 477.60001" width="477.60001pt" xmlns="http://www.w3.org/2000/svg"><path d="m477.601562 238.800781c0 131.886719-106.914062 238.800781-238.800781 238.800781s-238.800781-106.914062-238.800781-238.800781 106.914062-238.800781 238.800781-238.800781 238.800781 106.914062 238.800781 238.800781zm0 0" fill="#382b73"/><path d="m445.398438 238.800781c0 114.101563-92.496094 206.597657-206.597657 206.597657-114.101562 0-206.597656-92.496094-206.597656-206.597657 0-114.101562 92.496094-206.597656 206.597656-206.597656 114.101563 0 206.597657 92.496094 206.597657 206.597656zm0 0" fill="#473080"/><path d="m328.839844 95.789062h-180.078125c-4.882813 0-8.839844 3.957032-8.839844 8.839844v262.691406c0 4.882813 3.957031 8.839844 8.839844 8.839844h44.390625c0 11.683594 4.457031 23.367188 13.371094 32.277344 17.828124 17.828125 46.730468 17.828125 64.554687 0 8.914063-8.910156 13.371094-20.59375 13.371094-32.277344h44.394531c4.878906 0 8.839844-3.957031 8.839844-8.839844v-262.691406c-.003906-4.882812-3.960938-8.839844-8.84375-8.839844zm0 0" fill="#382b73"/><path d="m328.839844 362.160156h-180.078125c-4.882813 0-8.839844-3.957031-8.839844-8.839844v-262.691406c0-4.882812 3.957031-8.839844 8.839844-8.839844h180.082031c4.878906 0 8.839844 3.957032 8.839844 8.839844v262.691406c0 4.882813-3.960938 8.839844-8.84375 8.839844zm0 0" fill="#fff"/><g fill="#bcbec0"><path d="m309.132812 260.871094h-120.089843c-3.316407 0-6-2.683594-6-6 0-3.3125 2.683593-6 6-6h120.089843c3.316407 0 6 2.6875 6 6 0 3.316406-2.683593 6-6 6zm0 0"/><path d="m197.035156 284.589844h-31.992187c-3.316407 0-6-2.6875-6-6s2.683593-6 6-6h31.992187c3.316406 0 6 2.6875 6 6s-2.6875 6-6 6zm0 0"/><path d="m309.132812 285.070312h-87.980468c-3.3125 0-6-2.6875-6-6s2.6875-6 6-6h87.980468c3.316407 0 6 2.6875 6 6s-2.683593 6-6 6zm0 0"/><path d="m309.132812 308.308594h-144.089843c-3.316407 0-6-2.6875-6-6 0-3.316406 2.683593-6 6-6h144.089843c3.316407 0 6 2.683594 6 6 0 3.3125-2.683593 6-6 6zm0 0"/><path d="m165.042969 260.871094c-3.316407 0-6-2.683594-6-6 0-3.3125 2.683593-6 6-6 3.3125 0 6 2.6875 6 6 0 3.316406-2.6875 6-6 6zm0 0"/></g><path d="m299.550781 163.886719c0 16.734375-6.734375 31.835937-17.671875 42.839843-.03125.035157-.101562.101563-.136718.140626-3.054688 3.019531-6.386719 5.761718-10.03125 8.054687-6.492188 4.234375-13.851563 7.21875-21.734376 8.675781-2.289062.449219-4.652343.726563-7.042968.902344h-.035156c-1.355469.105469-2.707032.136719-4.097657.136719-1.386719 0-2.742187-.03125-4.09375-.136719h-.035156c-2.394531-.175781-4.757813-.453125-7.046875-.902344-7.878906-1.457031-15.238281-4.445312-21.730469-8.675781-3.714843-2.363281-7.117187-5.140625-10.207031-8.230469-10.898438-10.96875-17.636719-26.070312-17.636719-42.800781 0-16.765625 6.804688-31.9375 17.808594-42.941406 11.003906-11.003907 26.175781-17.808594 42.941406-17.808594 16.769531 0 31.9375 6.804687 42.941407 17.808594 11.003906 11.003906 17.808593 26.171875 17.808593 42.9375zm0 0" fill="#ef5a9d"/><path d="m281.878906 206.726562c-.03125.035157-.101562.101563-.136718.140626-3.054688 3.019531-6.386719 5.761718-10.03125 8.054687-6.492188 4.234375-13.851563 7.21875-21.734376 8.675781-2.289062.449219-4.652343.726563-7.042968.902344h-.035156c-1.355469.105469-2.707032.136719-4.097657.136719-1.386719 0-2.742187-.03125-4.09375-.136719h-.035156c-2.394531-.175781-4.757813-.453125-7.046875-.902344-7.878906-1.457031-15.238281-4.445312-21.730469-8.675781-3.714843-2.363281-7.117187-5.140625-10.207031-8.230469.070312-.101562.136719-.242187.242188-.382812.3125-.625.660156-1.214844 1.042968-1.804688.136719-.277344.3125-.519531.484375-.796875.488281-.730469 1.007813-1.425781 1.527344-2.085937.488281-.625 1.007813-1.25 1.5625-1.839844.210937-.207031.382813-.414062.589844-.589844.070312-.101562.140625-.171875.210937-.171875.242188-.28125.519532-.558593.796875-.800781.277344-.277344.519531-.484375.796875-.726562.488282-.417969.972656-.796876 1.457032-1.179688.210937-.175781.417968-.347656.660156-.488281.140625-.136719.28125-.207031.417968-.308594.136719-.105469.277344-.210937.414063-.28125v-.035156c3.785156-2.566407 8.195313-4.304688 12.949219-5 1.042968-.136719 2.046875-.242188 3.089844-.277344.453124-.035156.867187-.035156 1.320312-.035156h31.105469c.449219 0 .867187 0 1.320312.035156 1.039063.035156 2.046875.140625 3.089844.277344 4.753906.695312 9.164063 2.429687 12.945313 5v.035156c.140624.070313.277343.171875.417968.277344.140625.070312.277344.207031.414063.3125 1.25.867187 2.398437 1.839843 3.472656 2.914062.867187.871094 1.703125 1.804688 2.5 2.742188.382813.488281.765625.972656 1.109375 1.492187.347656.519532.695312 1.007813 1.042969 1.5625.3125.488282.589843.972656.867187 1.492188.136719.210937.242188.453125.34375.699218zm0 0" fill="#1caee4"/><path d="m281.878906 206.726562c-.03125.035157-.101562.101563-.136718.140626-3.054688 3.019531-6.386719 5.761718-10.03125 8.054687v-19.722656c.140624.105469.277343.207031.414062.3125.140625.070312.277344.207031.417969.3125 1.25.867187 2.394531 1.839843 3.472656 2.914062.867187.871094 1.699219 1.804688 2.5 2.742188.378906.488281.761719.972656 1.109375 1.492187.34375.519532.691406 1.007813 1.039062 1.5625.3125.488282.59375.972656.871094 1.492188.136719.210937.242188.453125.34375.699218zm0 0" fill="#009add"/><path d="m246.296875 185.863281v4.0625l-3.78125 5.898438h-.035156l-3.679688 5.765625-3.679687-5.765625h-.035156l-3.785157-5.898438v-4.0625l-9.371093 4.027344v.035156l7.082031 19.230469 5.207031 14.058594.453125 1.28125h.03125c1.355469.105468 2.707031.140625 4.097656.140625 1.386719 0 2.742188-.035157 4.09375-.140625h.035157l.453124-1.28125 5.207032-14.058594 7.082031-19.230469v-.035156zm0 0" fill="#d1d3d4"/><path d="m221.925781 189.914062 7.085938 19.207032c.285156.773437 1.277343.992187 1.863281.40625l7.925781-7.925782-7.5-11.691406v-4.039062zm0 0" fill="#fff"/><path d="m255.675781 189.914062-7.085937 19.207032c-.289063.773437-1.28125.992187-1.863282.40625l-7.925781-7.925782 7.5-11.6875v-4.039062zm0 0" fill="#fff"/><path d="m246.300781 175.925781h-15v13.988281l7.5 11.6875 7.496094-11.6875v-1.363281h.003906zm0 0" fill="#e6e7e8"/><path d="m245.078125 207.878906-4.679687 4.679688c-.882813.882812-2.3125.882812-3.199219 0l-4.675781-4.679688 6.277343-6.277344zm0 0" fill="#ef5a9d"/><path d="m240.398438 212.554688c-.882813.886718-2.3125.886718-3.199219 0l-1.59375-1.59375-1.386719 12.253906.453125 1.28125h.03125c1.355469.105468 2.707031.140625 4.097656.140625 1.386719 0 2.742188-.035157 4.09375-.140625h.035157l.453124-1.28125-1.390624-12.253906zm0 0" fill="#e43d91"/><path d="m234.671875 224.5c-2.398437-.175781-4.757813-.453125-7.046875-.902344l-11.039062-11.976562c-.417969-.449219-.382813-1.179688.066406-1.59375l3.992187-3.542969c.765625-.660156.382813-1.875-.621093-1.976563l-4.6875-.488281c-.730469-.070312-1.179688-.832031-.9375-1.527343l4.445312-12.289063c1.039062-.140625 2.046875-.242187 3.089844-.277344l7.082031 19.230469 5.207031 14.058594zm0 0" fill="#27c1e6"/><path d="m262.265625 204.019531-4.6875.484375c-1.003906.105469-1.386719 1.316406-.621094 1.976563l3.992188 3.542969c.449219.417968.484375 1.148437.070312 1.597656l-11.042969 11.976562c-2.289062.449219-4.652343.726563-7.042968.898438l.449218-1.28125 5.210938-14.058594 7.082031-19.230469c1.039063.03125 2.046875.136719 3.089844.277344l4.441406 12.289063c.242188.691406-.210937 1.457031-.941406 1.527343zm0 0" fill="#27c1e6"/><path d="m205.890625 195.199219v19.71875c-3.710937-2.359375-7.113281-5.136719-10.203125-8.226563.070312-.105468.136719-.242187.242188-.382812.308593-.625.660156-1.214844 1.039062-1.804688.140625-.28125.3125-.523437.488281-.800781.484375-.730469 1.003907-1.421875 1.527344-2.082031.484375-.625 1.003906-1.25 1.5625-1.839844.207031-.210938.382813-.417969.589844-.589844.070312-.105468.136719-.175781.207031-.175781.246094-.277344.519531-.554687.796875-.796875.28125-.277344.523437-.488281.800781-.730469.484375-.417969.96875-.796875 1.457032-1.179687.207031-.171875.414062-.34375.660156-.484375.140625-.140625.277344-.207031.414062-.3125.140625-.105469.28125-.207031.417969-.3125zm0 0" fill="#009add"/><path d="m260.851562 120.761719c-12.179687-12.183594-31.929687-12.183594-44.109374 0-12.179688 12.179687-12.179688 31.925781 0 44.109375 12.179687 12.179687 31.929687 12.179687 44.109374 0 12.179688-12.183594 12.179688-31.929688 0-44.109375zm0 0" fill="#009add"/><path d="m238.800781 179.6875c-13.054687 0-23.636719-10.582031-23.636719-23.636719v-12.269531c0-13.054688 10.582032-23.636719 23.636719-23.636719 13.050781 0 23.632813 10.582031 23.632813 23.636719v12.269531c0 13.054688-10.582032 23.636719-23.632813 23.636719zm0 0" fill="#fff"/><path d="m238.800781 179.6875c-2.621093 0-5.144531-.429688-7.5-1.21875v4.507812c2.355469.789063 4.875 1.234376 7.5 1.234376s5.140625-.445313 7.5-1.234376v-4.507812c-2.359375.792969-4.878906 1.21875-7.5 1.21875zm0 0" fill="#d1d3d4"/><path d="m215.164062 156.050781v-7.386719c-4.203124 0-7.613281 3.410157-7.613281 7.617188 0 4.203125 3.410157 7.613281 7.613281 7.613281.445313 0 .875-.039062 1.296876-.109375-.839844-2.425781-1.296876-5.023437-1.296876-7.734375zm0 0" fill="#fff"/><path d="m262.433594 148.664062v7.386719c0 2.710938-.457032 5.308594-1.292969 7.730469.417969.074219.851563.109375 1.292969.109375 4.203125 0 7.613281-3.40625 7.613281-7.613281 0-4.203125-3.410156-7.613282-7.613281-7.613282zm0 0" fill="#fff"/><path d="m238.800781 176.292969c-13.054687 0-23.636719-10.582031-23.636719-23.636719v3.394531c0 13.054688 10.582032 23.636719 23.636719 23.636719 13.050781 0 23.632813-10.582031 23.632813-23.636719v-3.394531c0 13.054688-10.582032 23.636719-23.632813 23.636719zm0 0" fill="#e6e7e8"/><path d="m215.164062 143.78125v4.65625c9.238282-5.386719 15.460938-15.371094 15.507813-26.824219-9.042969 3.316407-15.507813 11.976563-15.507813 22.167969zm0 0" fill="#e6e7e8"/><path d="m251.1875 149.277344c3.96875 0 7.753906-.765625 11.246094-2.117188v-3.378906c0-13.054688-10.582032-23.636719-23.632813-23.636719-6.835937 0-12.972656 2.917969-17.285156 7.554688 4.050781 12.519531 15.796875 21.578125 29.671875 21.578125zm0 0" fill="#e6e7e8"/><path d="m220.148438 117.8125c1.566406 15.761719 14.863281 28.070312 31.039062 28.070312 6.992188 0 13.445312-2.304687 18.648438-6.1875-1.566407-15.761718-14.863282-28.070312-31.035157-28.070312-6.992187 0-13.449219 2.300781-18.652343 6.1875zm0 0" fill="#1caee4"/><path d="m207.609375 142.8125c0 1.421875.105469 2.816406.289063 4.183594 13.136718-3.671875 22.777343-15.722656 22.777343-30.035156 0-1.417969-.105469-2.8125-.289062-4.183594-13.136719 3.675781-22.777344 15.726562-22.777344 30.035156zm0 0" fill="#009add"/><path d="m231.609375 152.957031c0 1.582031-1.285156 2.863281-2.867187 2.863281-1.578126 0-2.863282-1.28125-2.863282-2.863281s1.285156-2.863281 2.863282-2.863281c1.582031 0 2.867187 1.28125 2.867187 2.863281zm0 0" fill="#1caee4"/><path d="m253.820312 152.957031c0 1.582031-1.28125 2.863281-2.863281 2.863281s-2.863281-1.28125-2.863281-2.863281 1.28125-2.863281 2.863281-2.863281 2.863281 1.28125 2.863281 2.863281zm0 0" fill="#1caee4"/><path d="m215.164062 156.050781v-4.148437c-2.414062 0-4.371093 1.960937-4.371093 4.375 0 2.417968 1.957031 4.375 4.371093 4.375.15625 0 .300782-.03125.449219-.046875-.289062-1.472657-.449219-2.992188-.449219-4.554688zm0 0" fill="#e6e7e8"/><path d="m262.457031 156.050781v-4.148437c2.417969 0 4.375 1.960937 4.375 4.375 0 2.417968-1.957031 4.375-4.375 4.375-.152343 0-.300781-.03125-.445312-.046875.285156-1.472657.445312-2.992188.445312-4.554688zm0 0" fill="#e6e7e8"/><path d="m284.449219 362.160156c0 25.210938-20.4375 45.648438-45.648438 45.648438-25.210937 0-45.648437-20.4375-45.648437-45.648438 0-25.207031 20.4375-45.644531 45.648437-45.644531 25.210938 0 45.648438 20.4375 45.648438 45.644531zm0 0" fill="#fede3a"/><path d="m235.65625 389.675781c-2.046875 0-4.09375-.785156-5.65625-2.34375l-15.753906-15.753906c-3.125-3.125-3.125-8.191406 0-11.3125 3.125-3.125 8.191406-3.125 11.3125 0l10.097656 10.097656 20.042969-20.042969c3.125-3.121093 8.1875-3.121093 11.3125 0 3.125 3.128907 3.125 8.191407 0 11.316407l-25.695313 25.695312c-1.5625 1.5625-3.609375 2.34375-5.660156 2.34375zm0 0" fill="#f7cb15"/><path d="m235.65625 383.675781c-2.046875 0-4.09375-.785156-5.65625-2.34375l-15.753906-15.753906c-3.125-3.125-3.125-8.191406 0-11.3125 3.125-3.125 8.191406-3.125 11.3125 0l10.097656 10.097656 20.042969-20.042969c3.125-3.121093 8.1875-3.121093 11.3125 0 3.125 3.128907 3.125 8.191407 0 11.316407l-25.695313 25.695312c-1.5625 1.5625-3.609375 2.34375-5.660156 2.34375zm0 0" fill="#1caee4"/><path d="m267.011719 347.765625-25.695313 25.695313c-1.5625 1.5625-3.609375 2.339843-5.660156 2.339843-2.046875 0-4.09375-.78125-5.65625-2.339843l-15.753906-15.757813c-.523438-.519531-.925782-1.109375-1.269532-1.722656-1.734374 3.054687-1.332031 6.992187 1.269532 9.59375l15.753906 15.753906c1.5625 1.5625 3.609375 2.34375 5.65625 2.34375 2.050781 0 4.097656-.785156 5.660156-2.34375l25.695313-25.695313c2.601562-2.605468 3.003906-6.539062 1.269531-9.59375-.34375.613282-.746094 1.203126-1.269531 1.726563zm0 0" fill="#009add"/></svg>