<?xml version="1.0" encoding="iso-8859-1"?>
<!-- Generator: Adobe Illustrator 21.0.0, SVG Export Plug-In . SVG Version: 6.00 Build 0)  -->
<svg xmlns="http://www.w3.org/2000/svg" xmlns:xlink="http://www.w3.org/1999/xlink" version="1.1" id="Capa_1" x="0px" y="0px" viewBox="0 0 512 512" style="enable-background:new 0 0 512 512;" xml:space="preserve" width="512" height="512">
<g>
	<g>
		<g>
			<circle style="fill:#FF432E;" cx="256" cy="256" r="256"/>
		</g>
	</g>
	<path style="fill:#DB0404;" d="M512,256c0-15.715-1.424-31.096-4.135-46.029L379.894,82L103.547,417l86.371,86.371   C211.001,508.989,233.147,512,256,512C397.385,512,512,397.385,512,256z"/>
	<g>
		<g>
			<polygon style="fill:#FFFFFF;" points="194.472,82 141.894,134.578 141.894,378 379.894,378 379.894,82    "/>
		</g>
		<g>
			<rect x="255.595" y="82" style="fill:#E9EDF5;" width="124.299" height="296"/>
		</g>
		<g>
			<rect x="163.043" y="211.117" style="fill:#BFE1FF;" width="197.686" height="31"/>
		</g>
		<g>
			<rect x="255.595" y="211.117" style="fill:#A3D4FF;" width="105.133" height="31"/>
		</g>
		<g>
			<rect x="163.043" y="154.367" style="fill:#BFE1FF;" width="89.049" height="31"/>
		</g>
		<g>
			<polygon style="fill:#87C7FF;" points="194.472,134.578 194.483,82 141.905,134.579    "/>
		</g>
		<g>
			<circle style="fill:#4A98F7;" cx="317.416" cy="163.6" r="43.313"/>
		</g>
		<g>
			<g>
				<circle style="fill:#DBEEFF;" cx="317.416" cy="154.889" r="18.613"/>
			</g>
			<g>
				<path style="fill:#DBEEFF;" d="M317.416,206.912c11.514,0,21.957-4.56,29.644-11.962c-4.685-11.788-16.187-20.126-29.644-20.126      s-24.959,8.338-29.644,20.126C295.459,202.353,305.902,206.912,317.416,206.912z"/>
			</g>
		</g>
	</g>
	<g>
		<polygon style="fill:#FFCE00;" points="408.453,417 103.547,417 103.547,198.245 198.157,198.245 256,237.243 408.453,237.243       "/>
	</g>
	<g>
		<polygon style="fill:#FFA300;" points="408.453,237.243 256,237.243 255.595,236.97 255.595,417 408.453,417   "/>
	</g>
</g>















</svg>
